<mxfile host="app.diagrams.net" agent="Mozilla/5.0 (Windows NT 10.0; Win64; x64) AppleWebKit/537.36 (KHTML, like Gecko) Chrome/131.0.0.0 Safari/537.36" version="25.0.3">
  <diagram id="6w9YIdQwZg5OJUEIHHlt" name="PÃ¡gina-1">
    <mxGraphModel dx="880" dy="426" grid="1" gridSize="10" guides="1" tooltips="1" connect="1" arrows="1" fold="1" page="1" pageScale="1" pageWidth="827" pageHeight="1169" math="0" shadow="0">
      <root>
        <mxCell id="0" />
        <mxCell id="1" parent="0" />
        <mxCell id="I93GAZYGxNIZabXF53_L-1" value="" style="shape=image;imageAspect=0;aspect=fixed;verticalLabelPosition=bottom;verticalAlign=top;image=data:image/jpeg,/9j/4AAQSkZJRgABAQAAAQABAAD/2wCEAAkGBxITDxUSExIVFhUVFRUVFxcXFxUWEhcVFRYWFxUVFRUYHSggGBolHRUVITEhJSkrLi4uFx8zODMtNygtLisBCgoKDg0OGhAQGy0iIB0tLS83Ky0tLSsrLS0tLS0tNy0tLSstLS03Ky0tKy8rKystKy0rLS0tKy0tKy0tLS0tLf/AABEIAOEA4QMBIgACEQEDEQH/xAAcAAEAAQUBAQAAAAAAAAAAAAAABQECAwQGBwj/xAA/EAACAQICBgYIBQIFBQAAAAAAAQIDEQQhBQYSMUFREyJhcYGRByMyQlKhscFictHh8IKSFDNDosIkNHODsv/EABoBAQACAwEAAAAAAAAAAAAAAAABBAIDBQb/xAApEQEAAgIBAwIEBwAAAAAAAAAAAQIDEQQSITETQTJRcZEFIjNCYYHR/9oADAMBAAIRAxEAPwD3EAAAAAAAAAAAAAAAAAAAAAAAAAAAAAAAAAAAAAAAAAAAAAAAAAAAAAAAAAAAAAAAAAAAAAAAAAAAAAAAAAAAAAAAAAAAAAAAAAAAAAAAAAxYjEwgrznGK5ykor5gZQR0dPYRuyxVBvl0tO/1N+nUUleLTXNNNeaAuAAAAAAAAAAAAAAAAAAAAAACM0lrBhaF1Vr04te7dOf9qz+QEmDh8f6S8NG6pwnU7XaMfu7HK6V9IuLndQcKSfwwblb8zl81YjY9iB880NZcXSqSqU61pSyk/eku299rxJXBek/HU36xxmvxQX1hZjY9xB57on0q4eaSrU503zi1OHjezXkymmPSpQhlRpSnLnJqMfDZbv8AInY9DIjSWsmGo32qibXCPWd+1rJeJ5VW9I1SqmqkH2KM1GC8NnPnnfcuF04+GsCqTe1ONJPJRcbxbeWdSLjKFss72y35u8bHeaQ17c0+h2YxW+XVlJrnfaSjx7cu45LSWkam1JzUHK943TlOTWTlDrNVErb5KW++aWUFjMTXp1IwxFKE3JRahJw6RQk8kpxe1G98nJvg+Oe5jNG4rDV7XpK7lTjVc1KKk0tum6jUU5KMr2mty6uaQFmKdKptS6tKMt053ltTiutBSpwjGnwycE/u0bDGUW6uGdWnsxjOz6spxk7KUaT/AMyPgYtMRdWtKFacVOD2IVI2/wANLPpJKU22lL1l3ZtK6VjSpYqScaWIdR04J2in1kpRy2b+67rjazvnuYenan+khVWqOLShN5Kqsqcnymvcfbu7j0U+a8diqcrbFNRskr/Erb5R3KV+WXDO1z0z0Wa2Oov8HWleUVelJ75RW+m+bSzXZfkNj0gAEgAAAAAAAAAAABxmueu8cNelS2ZVeLecIeC9qXZuXF8G2iZiPLrsTiYU47U5RiucmkvNkPX1swqulUcmvhjJ/N2R4pp/Hzqesq1qs6j3XaSXZsrJLsRD4bD15Zx2+9bRh19ttM5e247fV7RjtYsPP23Uafx36Pu2I9V+Kb7TT9TNeqmorlT2I/JLI87w7rxXWlJfmy+plWJtJXyfxQ4d6X2NFrz7KOTLe09pdVjNHSzzhUXKpCLfhK1yBxWhac7rZlRlzTcoPwbuvBm5hdM1IJdJ14PdNWb81lLuyZLKrCpHaTUkzX6kwqzycmOe/wB3n+P0ZUo+1HqvdNZxfjz7GaTkd/iqdk7WlF+1F5prtXE5jSuiUk6lG+yvajvcO1c4m2maJ7Su8fn1vPTf7/6gJU+MXZ8uBWlWbey7GdQLa1C+7J8yw6S1wMVarFWu9+XZ/MjPFbUbO64dtzTx+B6l45tXuviXFd4Exo3S06UHDYp1YPPYqx24KVspRV1Z7+zPcdM9J4ajSdDahisM4TdKMop1aVaUXnOMorJybacXdXauedaMxmag3k/Zb4fhZJzkBu1dJzlR6KSg1tRk5bK6RuEZRjtSW+ynLN583kaVSbbu223xebMM6qs2a2HxaqRuvFcSBuORsYDGzpVYVabtOElKL7U7+Ropl9mpyg01OOUotNNPk09wH09orHRr0KdaPs1IRmuzaV7PtW7wNs430T4hy0XCL/051IfPb/5nZEwAAJAAAAAAAAHL6/axvCYa1P8Azql1D8KVtqo+66t2tdp41gsPOrPazlK+98+Mm/5vJjXfSjxOPqyTvCD6GH5YNptd8tp+KJHRuCVKml73F9vIr5snTDnc7k+lXt5lr4TQ9OHWklOXNrJdy4G+XMsZRm0z5ecyZLXndp2GnidG0p74pPmsn+5tspciJmGNbWrO4nSCWGqYZ7SSqU37UXfZa/Et6ee9O64MupYhQbqUb9G/ahJ9aPY+fZLiTdyG0pgXF9JTyXvLhbjlxRsi/V2lex8n1Y6L+fmnKNpxUou6a3mangLO6OX1d00qdRU5ZU5Oz/C3un3bk/M7VSs7MmI1J0elbv4lxWsuhehfS016uTs48Kc3uVvheduWa5Xg2j0bSGzKMoTzjNOMlxs+K5Nb0+DR5zjKTpzlCW+LyfNe7LxX3LmO2+zucTP1x0z7NXES2XtWb4NX4Pj3oyuRiczDTlbK27K/BqTdvLd4mxcR+k6GzO6yUvlP9/1NzDYjagnx3PvM2Oo7dJrja671/PmRejp5tfEtrxWTJGHRtVxqSpu7zdr81+pXR62K0ocM/lmvkMUtnEwfO36fYyypv/FJpb1d+VvsSPWPQnh6UsTXc4RlOMKcqcpJOUM5KTjfc3eOfYcpri4vTuO2GmtuGas1fo6e1u7dpeBFLTtTC0K0KeTxFPoXK7UoxupScbcXs2/qMmhqKcIqCTdknsq95csuPYQPavRFSa0fJ/FXm13KMI/WLO3InVXRX+GwVKhxjG8vzyblP/dJksIAAEgAAAAAGppfFdFh6tX4Kc5+MYtr6G2Q2uH/AGNZc4qP90lF/USiZ1DxXQuGvWinna8n3r9zq5EHq7D1k3yVvOX7E6zn5p3Z5v8AEb9WXXyhjZYzI0WM0OfpY2CtitgjS0qititgjTkdYNG9HK8UlF5rs5xvyzJ/VjSTq0NmT69K0Xzcfdb+a8DZ0hhVUpuD8O/h+nicjonG9BiltZRknCXc8r27Goy8Gbonqh0sc+ti1PmHZ4p3Ry2stC8FVW+HVl2wbyfg3/uOnqPIi8RTUrwe6ScX4il9Sx42aaWifk4hzMVZ7nnyy7eZdKLTs96yfet5Squq87ZbzoPTRO42zQxFop2ve2XaadDBbMr355djM+Gl1cn/AB5/cyQWYS1a2EUpxk/d/W6NqNr8L28bcPua0cT15fDBZvm+SJHV3Q1WtO0Y3nUd3wSXC7e5ICK0phpTlFLPZv5u36I9a9EWqU044mrC1OC9UnvnUy9b+VZ27e4n9V/Rth6VqmIarVN+z/op92+fjl2HexikrLJLyHkVABIAAAAAAAAERrYv+grv4acp/wBnW+xLmHGUFUpzpvdOMovukmn9RKJjbxfQStVqr+b/ANyYkQGiZOFe0l1nFxa/HHKS84k82c7NH5nmufXWX+ljLGXssbNSkoipQIhC5FUURUCpxetOE2aza3S63jx+52lyB1rpXhCXJtfRr7mzHP5lrhW1l182zoHEOrQi3vXVfesr+VjPiMPnci9THZ1Id0l9H9EdBio5DWrJmnTlmHnunKGxi6i4OW0v6kpP5tmm1kyX1qX/AFX/AKqb/wDpfYiZKyv3l/H8MPRced4q/Rgwe57n3btyzRtU6M5WjCLlN7kufN8kjY1cwDqzUEs3y3WSV2eoaF0BCCSjHhv4vvZnMt7jdBaj5LpXezu0uMucmekaC0HGmlsxS7iVwOjUuBLUqSRGti7DxsjZizHFGSJkLgAAAAAAAAAAAAHjWvGEeH0hOSVlKSrx5WqPrr+9Sf8AUjcU00mtzVzqPSbofpsKq0V16F2+bpSt0nlaMv6XzOB0FirxdNvOO7tX8+pT5FPdx/xPDuOuPZJstZcyxlRxC5UtK3CFyKlqZVAXXInWZ+oX5l9GShDa0P1UYrjK/kv3MqfFDbxf1q/Vraqv1/fB/VHTYvcc5qpT69+SOjxK3Lm0jZPxLuSN5XDa0u+LfZTpx+Tl/wAiIqez35Z/P5XN3SlbpMRUmtzm7d0erF+UUY8NQc6iir2TV7LNvglzb3eZepGqw7uCvTjrH8O+9GmhX0TqyXtPZXdvl82l/Sek4TCJGPRejo0qcacVlFWXPvfa9/iScIktqkImVIokXpGQqkXIokXAAAAAAAAAAAAAAFJRTVmrp8OB4prXoWeBxXUT6OV5Unw2b5wfbG9u5rme2EZrDoeniqDpTy4xlxhNbpLzaa4ptGNq7hhkpFq6l5hhsSqkVJeXJl7IfFYStg68qc1ZrevdkuDi+MXwf7okaGJjNXT71xXec7JTpl5nk8acdtx4ZgUBqVFS5FqKkoXRRzGseJcquzHdBW8Xm/t5E3pPHqlC/vPKK+/ccvh26krdt32s24q/udDhYp3OSYdDqxSspS7Evv8AoX6fxmxCUk80tiP/AJJrP+2OZt4ZRpUbtpZXz58/oadLQ88TNTneMFfZj77vm5S5N/ouBvpTv3dDDx5tfcuZ0LoWtiaip0Y98nlTguc39Fvfm163qrqdh8Kk7dJUWe3JbnxcY7o9+b7TZ0Bo5UoKMYpR5Lnz7zoaNMs+XVZKcTKikUXpGQoi5BIuQFQAAAAAAAAAAAAAAAC1lwAhNYtBUsVT2aitJexNe1F/dPivvZnlWmtD1cJK0018M4+zLuf2Z7bKJo6QwMakHGUVJPemrp+DNV6RKtmw9bxajpdr214r9DcpaTpP3145fUmNOajJNypNx/C84+e9HKYvV2vC94N9sbNFa2GHMvw8c+eyYljqa3zXmaGL09FK1OLk+byj+rIhaMr8Kc/Jm5g9XcTJ5qy5t/YiMMR5RThYqzuZ2gsTUq1anWd5P+WOp0PouUUrRu97vu7ia0VqvGGb60nvb+x1GC0UktxZrES6NIrbUe0IPA6EcpKdR7T4cIx/LH7s6nAaOS4G7hsElwN+FKxs0tRqFlOlYzxRWMS9RJ0yUSLrFVEqkSCRUAAAAAAAAAAAAAAAAAAAABa4lwAwzopmlV0VB8CTBE1hjNIlBT0FD4UWx0NFcCfKWMeiGucFEVR0ZFG5TwqRtWBlEaZ1xxHhjVNFyiXAlmpYqAAAAAAAAAAAAAAAAAAAAAAAAAAAAAAAAAAAAAAAAAAAAAAAAAAAAAAAAAAAAAAAAAAAAAAAAAAAAAAAAAAAAAAAAAAAAAAAAAAAAAAAAAAAAAAAAAAAAAAAAAAAAAAAAAAAAAAAAAB//9k=;base64,/9j/4AAQSkZJRgABAQAAAQABAAD/2wCEAAkGBxMTEhUSEhIVFRUXFRcVFRUWFRUVFRcVFxUXFxUXFRUYHSggGBolHRcVITEhJSkrLi4uFx8zODMtNygtLisBCgoKDg0OGBAQGy0lHyUvLS02NS8tLS4wMzUyLi0tLjUtNy4tLTAtKy0uLi0vLS0tMi0vLy0vLS4tLTErLTUtK//AABEIAOEA4QMBIgACEQEDEQH/xAAcAAABBQEBAQAAAAAAAAAAAAAAAgQFBgcDAQj/xABEEAABAwICBwMJBgQEBwEAAAABAAIDBBEFIQYSMUFRYXETgZEHIjJCUqGxwdEjQ2Jy4fAUM4KSFZOy0kRTY6KzwvEk/8QAGwEBAAIDAQEAAAAAAAAAAAAAAAMEAgUGAQf/xAAzEQEAAgEDAgMFBwMFAAAAAAAAAQIDBBESITEFUWETIkGB0TKRobHB4fAGQnEUIzNSYv/aAAwDAQACEQMRAD8A3FCEIBCEIBCEIBCEIBCqGlen9PSExt+2mH3bD5rT/wBR+xvQXPJZRpBpbWVlxLKWxn7mO7WdCNr+8lQZNRSnT4tnpPCc+o97bavnP6NfxvT6hprh0wkePUh+0dcbiR5oPUhUjE/K/KbimpmtG50ri82/I21v7ioPAfJ3V1FnFggj9qW4JH4Yx5x77DmrxhnkyoorGZz53b7ns2dzWZ+Liouea/aNoXpweH6bpeedvTr+XT75Z7W+UHEZDnU6g4RsY332v70zbU4lNmJK2S/AzuHuyW4U1DTQC0MEUfNrGg95tcpNRiHNeTit/dZ7XXYo6Y8MR930/ViP+D4iczFV94lHxSTBXx7RVs5/bj3ha5U4hzUVU4jzWE0iPis01d7d6Qz6k0nrYzZtXODwdI5/ufdWXDfKNXNtrOjlH42AHxZb4JWITseLPa135gCq7VUjBnHl+Em47icwsPaWr2lP7DDmj3qRHyaZhflKjdlPC6P8TD2je8WBHcCrdhuLQzi8MrX8QD5w6tOY7wsCp5dxUrS7Q5pLXDY5psR0IzCmpqZ+KhqPCKd69PxhuqFnODaZTxWbOO2Z7WQkHfsd32PNXvDMTinZrxPDhvGwtPBzTmCrVMlbdmkz6XJh+1HTzO0IQs1cIQhAIQhAIQhAIQhAIQhAIQvHOABJNgMyTsA5oEzStY0uc4Na0EucTYADaSTsCyTTTyhPmJho3FkWx0ouHyfk3sbz2nlva6eaWurHmGIkUzT07Vw9Z34OA7zuty0R0TNSe0kuyAHMjJzyNrWcBxd3DPZrc2pte3s8TqdD4Xj02P8A1Or+UfzvPp8Pyh9HNF5qt2rE2zQfPkdkxvfvdyGfTatZ0d0SpaOzmt7SXfK8AkfkbsYOmfMp/E6OJgjjaGMaLBrcgP15prPXc1JjxUx9Z6yravXZtVPGvu08vP8Az9OyTmrFH1FdzUVUV/NRlRX81lfMjw6GZStTX81F1FfzUXUVyjp6zmqt9Q2uHw/0SNRXc1GT1iZTVKaPkJVa2ds8WhiHeepTKSVekLzVUM5ZlcrgiCGuN1IUc9ky1UtmS9jLMF8EWhZ6WQEJ5Tl8ThJC8scN438iNhHIqAoZ1YKWS6t48m7TajT8fh0XrRzSRtR9m8BkwHo+q4DaWX+G0c9qn1l1RSHJ7CQQbhwyLTuP6q46K4/247OSwmaM9we32gOPEfVbHFm3923dzes0XCPaY+3x9P2WBCEKw1gQhCAQhCAQhCAQhCAWb+VPSQj/APDEcyAZyNzTm2Pv2nlYb1e8axFtPBJO/ZGwutxO5o5k2HevnqSqfNI6R3nSSPLjzc47By3BUtblmlONe8uh/p/Qe3yzlt9mv5/t9E3oxg38RJ51xE2xeRv4MB4n3DuWkGpaxoY0BrWizQMgANgAVdw/Vp4mxt3ZuPtOO0/vcAuFRiXNVcW2Kvq2eri+ry/+Y7fX5pqoxBRlRiHNQtRiPNR02Ic1jfNKbB4f6JmevUfNWqIlrU3dOSq1sky2uLRRCRlq02dNdNe0RrqKd5W64Yh31kXXDXRrrHiz4O90XXDXRrpxODtde3XDXRrpxOB5DJYqcoKhVcSKRoajNS45mJVdTg5VX3C6jcVyxWmdA9s0RtY6zDwO9p4i3iCorD6mxCttMBNGYzvGR4HcVsae9G3xcxqKzhvyntPdZMExNtRC2VuV8nN9l49Jv73WT9Z1oZXmCqMD8my5WO6Vt7eIuO5q0VXsOTnXdz2t03sMs1jtPWP8BCEKVUCEIQCEIQCEIQZz5Z8S1YIqcH+Y8vd+WO1gernA/wBKzXBDaVpPq3d37veVZPK9Va1eG3yZCwd5LnH4hVCml1TflZafU23yz6Po/gmninh9YjvaJn7/ANlmqMR5qOmrlGyVJK4FxKhm0tji0tanctWSuDpSVyui6wWorWOxesjWSELzZl0L1kayQhNjoXrI1khCbHQvWRrJCE2OhesjWSEJsdC9ZOKaRNLrpE5exDG8RMLLRTq14HW7M1RaOVTmHVOq4KxS23VoNbp4vEwktMAWTNmZkfNkaeD2n6tB71qNBVCWNkrdj2NeOjgCsu0mk14Y3cC4eIB+Sufk7qdegi4t12f2vcB7rK7p7e/MefVzfieLfS47z3iZr/PuWVCEK40AQhCAQhCATavqRGwuKcqqaT4kATc+axpe7u/ZQZNp5ITXSk7bM/0BQN17WVbpZXyv2vJd0BOQ7hYJF1ps8f7kvp3hN4nR4tv+sF3RdIui6h2bHkVdCTdF02ORSEm6LpscikJN0XTY5FISboumxyKQk3RdNjkUhJui6bHIpKa5c7r0FNjkkqaRSUEyg4np9DKpKqWau6erqzWhA/F8irr5Lp7UtjsMsg78ll88+VlPeSzGCJ5qUnKQdrHyewWdbqAD/Qrel+38nN+OVimliPO36S2xC40kus0FdlsHIhCEIBCEIG9bMGtJ5LI9NMQJp5DfOR4b3bfl71ftMK7Uidnty8Vlml5+zhb+In4IKzXQ6rGO6g+63wPim4KmMShvEO/4lQTHLV6iPfmXfeC5dtNWno63RdIui6g2bnmXdF0i6Lpscy7oukXRdNjmXdF0i6Lpscy7oukXRdNjmXdF0i6Lpscy7oukXRdNjmXdF0i6Lpsc3aN6dRyKPuujZEYWnc7mkJs1ou5xDWji4mwHipnEoP4HEoSzYwxd41Gh/j53ik6A0HbVQlcPMh87lrn0B3Zu/pCdeUcXqWn8MfxKv6Su28uP/qDNytWkfBtGFyZubzuOhz+qklWsCnu2F/tRMJ62H1VlVxzYQhCASJXWCWmte+zSgz/TyszY2+1w+KqOlbbshPP6KR0zqbzR/nCb45Fr0oPsuB8QR8ggjZ4taHoSPn81UKh2q+3HP6q74X57HN5Bw+B+SqGlFKWjXHqm/dv/AHyVPNT3nSeG6ma4d47x/PycgV7dMaSq1gnYKq2rMS6TDqK5KxaC7oukXRdY7JeZd0XSLoumxzLui6RdF02OZd0XSLoumxzLui6RdF02OZd0XSLoumz3mXdF0i6Lps85l3XhzyC9jYTsT+jpLuawek42vwG8+C8mdmM3mekL/oPTdlTMG913k8bnL3WUFpw/WnPIsHgAfmrZhoDWgDIAW6ABUusJmnH45Ce69gthpo91xPil4nJ0apg3mw03KNv+kK3N2KsPbqiNvstt4NsrNFsHRWWqKQhCAUZjD7NKk1E4z6KDHdMn2ka7g4fFSuGN7SN0ftNLR12t94Hio7TSK7XfvYvNHqu4BBzsCOoQMsNl7KQX2A6juhTrSHDbg5XBHiCnWlFANYTNHmSi/R3rDuN11wWo7eIxu/mR5Hm3c7981Hkryhc0eo9ldj1VC6nlLDs2tPEfpsUhDNldWvSnR/XaRsIzaeB+ioUbnRPMcgsR+7jkoLV5x6tvhzTp79PsT29PRNNddLITJjt4TqGqI2i4VeaN3TUxMdXt0XThnZv36pSnUDvVIPRYpovua3RddH0zxtaVzLTwKHIXRdeWXtuSHIXRdeiMncV2ZRvPqocnC6E8bQ8T3Bd2UgGewcSvDmjtU8E6hpN7suA3lOmgD0R/UfkEF9vqo7ZIjskrS1u/SHlgFM6N0lz2h35N6ce9RlBSmV34fjyV4wmisBwTFSb26q2t1NMGOYh7jNV2NOfad5je/amOhOG9pUtJ2MzPcozFq7+JqLNzjj81vN28/LxWj6H4X2MGsRZz8+5biteMbOFzZJyXmx9Vv+0HUfEX+Ks8ewdFUona1Qwc7+H/ANCtwWSJ6hCEAozFG5HopNMq9uRQZbpJTXuFT8Dm1HFh9V3uWj43T5lZxjcBimDxsdkfl++aC9UGrKw07zk/OM+zJ+qqddDLSzdo0Wew2LTsc3e0/vgpDC6nWba+YVilgbWR2Nu3aP8AMaN/VAzidHVRCWPYciN7Xb2uG4hU3SbRgSDZZw9Fw2j6jku7jNQzGSMXaTaSM7Hj5O4H4jJXCgqoayPtIjfc5pyew8Hjd12Hco7036wu6fVcY426ww2eKSndqyDLc71T0PyTqKYFafjGj7XggtBB2gjJUHFNEZIyTCcvYcfg76+KhtG/ds8WSa/8c7x5fH9zOy6RyPbsJUc6Z8Z1ZGlp5i3gd6cR1AO9RzSV3HqK27TtKTZikg259QnEeLk7WtUW2VdBIsJrCzGWfNKivB+7augq/wALAokPShIseKSMkpX+K5tHQXSXVA36x9wUcJV72q82ZRePjJ/253Wb0zPiUgv37TzzTIz813paWST0Wm3E5D9e5YTWZS1yVjsW6dPMPw50huQQ33n6BSeFaO5gu8489g6BW6gwsC2Syx6eZVtV4lXHHfqZYVhdgMskw0vxvsx/CQH7Rw89w9Rp3X9o+4Z8F7pVpY2G9PSkOm2OeLFsXEcHP5bBv4LjoRoo+R3ayXuTrEnMkk3JJ3krYY8cUhyer1d89t5S2gejVy0uHmi1+vBaFiEoa2w2WsF3pqZsMYa0WyVa0mxPUYSNuxo4uOQHefddSqZ3oyNed79zfNHXafjb+lXFVzQ2j7OFt9pzJ4k7SrGgEIQgFxqG3BXZeOCCn4xTbVStIcL7SNwstMxOnuqzVU21BleE1bmO1XbWmx+vernTPNhIw7M7jaCoDS7Bix3bMH5hxCTo5jWqRfNp2j970F6fHFWt1XgNmt3P/VULF8CqKOXtoC5jhvG8bw4bHN5HJXQ0gc0SQm422G0J7T4k17ezqG6w2a3rDqgrGB6bQzWjqgIJdmv9w49TnGeRy57lZKjDGOGY2i4IsQRxBGRChtINAmSgvgIO/JU2B+IYcSInO7O+cThrxH+g+iebbHmvJiJZ1yWr2XHENEg8EANeOBAPuKqWI6BNBJa10Z/CcvA3U9hXlLhOVTC+F3txHtY+pYbPb3FyuGG47Tz2ENRBKT6muGSf5b7O9yjnF5Llddb+6N2Lz6JTt9GQHk4FvvF02dglUPUaejh87LfpqOP7yEjuITZ2FUp3ELCccrFddj8pj5/VhAwyp/5R8W/VdGYXUH7o97mfVbh/gNN7R8F6MDphvKx9lZNHiGOPP8PoxeLAKg+yOpJ+AUjS6JvPpPJ5NFvebrXGYdTDY0lOHRNjbrdmGNHrPIY3+51gvfYz5sZ8TrHaGeYboeBYiO54uzPv2Kx0uANb6Vl5iunFFCDeoEh9inb2p6a+TB/cqZinlJnku2khEPB7vtpuoBGow9zuqzrhrCrl8Sy36R0XuvmgpmdpM9sTN2t6TrbmMHnPPQLP8d00mqSYKRroozkXffPHMjKNvIG/E7k0wrRSrrZO0lL3F3pPeS5x/qO7luWqaK6CxQAHVD37yfRB5nepYiIULXm3dUtCdAj5skwsNwt7gFrdFRNhaMgLbBw+pTiKFsY4nj8gNwTWsnAGs7uXrEzxSqsCVQGTGrrA0ZxxOz4GTYe5uzrdGm+kpBEER+1fst6jDkXnnuHjuUxoBg4jYMkF9w+LVaAnaRE2wS0AhCEAhCEDapiuFA1tMrM4JjVQXQVCsoQ9paQsv0hwd9LIXtBMZNyBu5j6LaZqdRmJYY2Vpa4bUGdaO4+6Mgg3afAjkr5TdjVN1mENfwWbaQaOy0ry+NpdGTcs+JbwPxXmD4wR5zHHLbuIPBwQaQIZYDlcdNhTo1cco1ZoweYUfgeljXANmt13KxDD4ZRrMNr8MwgqeJ6B0s9zG4NPNVDFfJdO2+p5w7itUfg8jdmfRDDI3bcIMVZhmJ0v8qSojA3Mkka3+0Gy7t0rxdm2Z7vzxQv95YT71tTZydtj1AKDTMdtjjPVqDGRp9iY2iM9aWL5NSXad4odjmt/LTQj4sWz/wCCxH7mLwP0XSPAY90UQ7igwyTSDF5cjU1H9BEX/jDVwi0Trahwc9r3u9p5c939zl9Cw4M0bNRvRg+adswxo2uce+w9yDFML8lshsZnho4E/IK9YFoFTxWLYy88Xea39VeYqZjdjQOe0+JXUlAxpsNa0WNreyBZv6p0XWyASZpgMybKExHGw3Jv6oH1dWNYLk5rOdNtMBENUedK7+XH/wC7+Dfjs4kRelem2q4xQWlm2HfHGfxkek78I77Kt4Pg75HmSUl73G7nOzJ/Tls4IJLRPCnySGWUlz3nWc47z9NwWz4JR6rQq3othOqAbK8QR2CDqhCEAhCEAhCEAkOaloQMKinTCSBTbgm8sCCAq6FrwQ4XWdaT6CkOMtOS13L4EbCORWtPhXB8CDAW174Xas7TGfaAJYeu9vw5qzYTjz47Fj8jwN2lXvGdGIpwQ5ov0WeYroBNCS6meW79UZtPVpyKC+YVpqDYSN72/RWejxuCTY9vR2XxWAurqiA2ngOXrR/7XH5p/RaSxHLtQ08H3Yf+61+4oN+EEbs9Vp6foj+CZw96ySixp4za424tdceIUvT6Uyj7x3eboNGFI3mughCocelsnte4LqNKZPaPggvIAQ54G02VFdpE8+sfFR1fpSyPOWZjPzvAPgSg0GbEGN9a/RRNZj4Ho/UrL6/ygw7IhJOfwN1W97nWy6AqGmxbEKnJgFOw+xdz/wC8jLuA6oL3pDpdHCLzS6pOxo86R35WDPv2c1QcRx6qrCWxB0ER2m/2rhzcPRHJvinGH6JgHXkJe45lziXOJ5k5lWKkwsDIBBXcG0fDLWCvuBYNsNk5wjBr2uFb6GiDQgXh9KGhPl4AvUAhCEAhCEAhCEAhCEAkkJSEHFzFxfEnZCSWoGDolxfCCpFzFzdEggqzB45PSYD3Ks4n5P6eS/mgdyv7olzdGgx6q8loabxuLTxaS0+ITN2hFaz0Kmbve53xJW0uiXJ0KDFjo3iQ/wCJf/az/avRo3iJ21Undqt+AC2N0HJc3QIMhGg9Q/8AmVEzhwMjyPC9k7ovJ1E3MgLTzAkGnQU+l0ZiZsaPBSDKEDINVgbRX3JxFh3JBX4cOvuUzQ4TyUvT0IG5P44gEDelpQ0J4AvUIBCEIBCEIBCEIBCEIBCEIBCEIBCEIPLLwtSkIOZYkFi7osgbmNIMKdaq81UDMwJJpk+1UWQMP4XklNpE+siyBs2mC7NjC6IQeAL1CEAhCEAhCEAhCEAhCEAhCEAhCEAhCEAhCEAhCEAhCEAhCEAUIQgEIQgEIQgEIQgEIQgEIQgEIQgEIQg//9k=;base64,/9j/4AAQSkZJRgABAQAAAQABAAD/2wCEAAkGBxISEhUSEhIVFRUVFRYVFRUVFRUXFRUVFRUWFxcXFRUYHSggGBolHRUVITEhJSkrLi4uFx8zODMtNygtLisBCgoKDg0OGhAQGi0lHyUtLS0tLS0tLS0tLS0tLS0tLS0tLS0tLS0tLS0tLS0tLS0tLS0tLS0tLS0tLS0tLS0tLf/AABEIAMIBAwMBIgACEQEDEQH/xAAcAAABBQEBAQAAAAAAAAAAAAAAAQIDBAYFBwj/xAA+EAABBAAEAwUFBgUDBAMAAAABAAIDEQQSITEFQVEGE2FxkQcigaGxFDJSYsHwI0JyktEk4fEzU4KyFUOi/8QAGAEBAQEBAQAAAAAAAAAAAAAAAAECAwT/xAAgEQEBAQEBAAMAAgMAAAAAAAAAARECMRIhQQMiMlFh/9oADAMBAAIRAxEAPwD3FIlQoESoQgRKhIgEqRKgRKhIgEIQgEIQgEIQgEIQgEIQgEIQgEIQgEIQgEIQoBCEIBCEIBCEKhUiEIBKkSoBIlSIBKkQgEqRKgRCEIBKkVLiPF8Phxc88cY/O9rfQE6oLqFhsd7VOHtdkhMmJedmws0P/m/KFneP+0/GsY58WGhiA272TvH/ANjaF/EqauV62qHE+NYbDi554oh+d7Wn4AmyvB2dq8bjGOfJi5XVvBCRCPVlEg+JWbdnhmdM6B/du+/nGagfH4DdS2rj23iftb4dHYi73EOHKKMhv9z6FeVrF8W9t2IdYw2HjjHJ0jnSO9BlA+azzm4eNzZWuDWvbl2tjgau+hXC7Q8F7r+LHrG4+eW9fRT5LjYcB9r+NZJc5bMwnVpa1lD8rmjT42vceBcXixcDMRCbY8Xru082uHIgr5ABW39nfbaTASChnieQJIyasX95vRws+aupY+l0Kvw/GxzRtlicHseLa4bEf58FYVZCEIQCEIQCEIQCEIQCEITAIQhAqRCFQJUipcR4vh8OLnnjiH53tb8iUF1CwfFfa5wyGwx8k7hyiYa/vflb81jOLe3CZ1jDYWOPo6ZxkP8AY3KB6lRce3qnxHi2Hw4zTzRxDrI9rfSzqvmri3tE4niLz4uRo/DDUTfVlO9SsxLMXOzOJLjzJJd/cdUMfSHGfanw/D6Ayyk7d3G4NP8A5vyt9CVneIe1XEGcQR4eOEOFskkc6S+lNaGgeq884PxF2IhML8r3t1yv/wDtaNaBGzttU9vc4mPumSObKwlzA/7zCN2X/MOXVZ2tSR1u1/a3GOD43YvEZiAQIqiZXT+GASK6nkuHwTijHQva5zY5QD/FcAXOB5ku1JVzh/E3yxvic8RTs0LiBR87WdxmCZDTzPHK8EExgEh2utlJNFoYEyZp8PMZJGm3AtyO8xyINK7iOMCeNpGEMrm6PLm6DTkRqudBx9kZL48OxjyKJzGq8G8lzMLxKWJxdG8tLtTVUdb22WsNdvHRfZ+7xOGuNsmha7+U+R5aFdDhhbbnyYpsscjTma7SjzBB5LK8Q4rLPXePsA2G6AD4BUkxNd9nEYGGaEtL4HnM2t2u/Le3Jc/DcefC10ZOZjgRkfZoH9/NUAq88JLiQNzfqVchpYsS2/esDwAPy0VrDzAEEG+ZGxrUa+KodwU6GL3hfn4WrcR6t7Mu3f2OURSvP2V5NjLfdvNU8cwNNR4k7r6BikDgHNILSAQRqCDqCDzC+OBJRsaak10HJeuey72lRwsZg8VYbnqOS9Iw7Wnj8OY7ja+ixPpa9tQka6xY1B1BSqshCEIBCEIBCEIBCEIBCEIBCEFBhfapxqSGJkMTywzB5c9ppwa3LoCNRebcdPFeC8UjddnV25Ph1tep+13FB+Laxp/6cQB/qcXO+mVYHERB48Rt4Lnv26yfTJkpCreJw7QSAaOYijsAOaq5T+niujBtoTUWgnws7o3B7DTm7FPxGMe9/eE+8dbaK1HkqyUrWBzySbOvid0hKRKgAktKkK0CklK/gOHiQW6aOMDT3yc3waFc41wLuGxvEmeN/wDMBVf50+im/hjhlWcHgJZf+nG5w51t6lauHg8Byd3EyWMgB7+8OcE862C5nEpXYXvIGA928gte7MCLAsA81i3/AEuOTjOGzRkd5GWgmg6rB+I0XZk7NtaWMfiKe/UDIarzVkGUYEse0vL6EYALjR10rwtJwXEStkbHibaMp7vvBRJ5e8VDGf4vw90Ehjcb5g9Qdj4HwVVrlrZML3hf9rja2vuzNdpQuhvqsmYTZA1q9eVdVYWPX/ZD7QRHlwOKfTNoJHHRhO0bjybvROxNdF7avjiNi9/9jXap2JgdhZXF0kABa4my6LYA+LTQvoR0USx6QhCFWQhCEAhCEAhCFQIQhQCEIQfPvb7Fu+3SZ+biP6aA9ea4rTzXY9qcLnYuQ7EOB+A3PjusvgMSQPeNhxsH6eS48zeXa+uH2iJExHWj8goI2lS9o5LxHkG/5/VQRyAHUrvNyOd9Wco1Fcrrp+9FBSsYiMtNnmPoquJBygAbnXzGwtIAytHMJzXA8wq32c+HolOHcCNPTRbkTWm4L2ddiGZ+8a1t0RRc7TwCv/8AxeBhf3U73l9C9HNaL8guJwbicuGIc3Wwbadj0scitVF9pmYJWPgFjQFpJHm47ELFl1qM3xrAxsdmgzujPNzXAA3oASNVyqXpj3M7qsS5hNAO/D8LXn3EIGNkcInZmX7pIP7K1CxUWuwkT8Rw4suzGSRr+HWvS1lRGp45HMBAcWA7+8Wg6dE6mxIt9nOINic4PsNkbRcPvNOuopdZ2Pw0cT2d4+YPGjX65TX4uWtLLd60f7Db4lRuxHIN9bPy0T46fJ2cJxyWOLumu02BItwFVQVLFSvf70ryd/vnbyHJUHSPPOh0GnyCZ3XVJzIltWX4oAVmJ9QPmovtB5D1TWtATnH4fqp9BA5x5/Nb/wBimJMfE4m3pI2Vh8f4bnD5sCwAWr9mM2XimEJ/71f3Nc39VKsfUqE20qjJUISIFQkQgVCEIBCLSWgVCS0hKaPOfa5wcEMxLQLHuyeI0yn4aj4rx7E4arq6O9cvAD19V7p7SngxNYeZv0/4Xm3E+zUrMO3FsFxusOoH3CDoXflPX/Zcd+67Sf1jzfiWCzlxB95u/iAN6VTg0AdMwaGrJ6aA+vJW+I2Jnen0sK7wTCNBEjejgfA3p8l23Ixn2n4hgQBY253yvZcY2LHqtaRYXE4jgyLcB7oqzY0s6KcVbHNtODUGVg534AfqVEcZ0b6m/ouvxrGphGrEUjmA04tB31oKj3zz4eWn0TcnVa+M/abVyXEN3L8xPTU+p0UDsRtTfXX6JgYP31TwtZIfZpe8868tPpqmCHqpiUwlNqYYGfv/AJTgE10wHMKfDwvePdYTr8PVZv8A1URUZcu03s/K4DUAnkLPkbXM4hw98LsronAnZzyad1LaofVc9l8WyxVMwT8OHPdkaNeVmkwxHmQP6V1uyeBY/FxNLiGA5nkb5W6n4cj4WlsSSp8J2ameav4NBJ9dl05Oy2JwZZjI7/gvZISd2lrgQSBoW2Ba9iifg47GeHK0Ee4cxJFgZRz236EFcfiHaljdWssCjrQ1FmyBy0C4b366ZG+7HcXkxeEixEsYjfICcouqDiGubetEAH4rtqnwzFiWGOUaB7GPrpmaD+qtWtyudOSptotVDkJLQgVCRCaC0hKakUDsyQuTSU0lTVYP2kz+8wHUNA06kk/7LSdmIR9jja4AhzTYIsEOJsEcxqsN7Rnk4kDkAPoP8rf8JGWCJvRjfoufPtdOv8YwnF/Y7hZZHyRzyxZiTkyte1pJugTRrwWe7U+zhmAgE8OIe821pa9rRZN6gt2228d17KZFkPaZJ/ox4ys/9XrSTb68ehnDxfMaEcwVQ4824x4OH0Kt4yMtPeMH9bfxN5keIVTjDriB8R9Ct8+rXA7sJ4CapYoi77rXHyF/8LuwaQgKLEZ2miMp6EfsKHK49StSJq5YvdTRYdzvuscfIH67Ko2B2hA8BWpte48C7JNMUTphT3RtcWDUAkAlZ76nKya8bxPDZg3Pl05gGz50Fy8jndT9F9JjhmHw9Z2MY0mrdRIrf3d6Xj/b/BRR4omDL3bxmblFNuyDlB2GgPxU5/kt9i3mMa2A816D7KuC98ZHPLe7aWjLYzku0zAfh2BPUhYhmFe92Voc4nYAEn0C1nCeHYzDxAPicxr5BlzNolx0IF61XXop/JfrLTmPVmwYaDNfdivui8zyeYrWis924xMM2EkjYCXZS/M5g0MTmu010tuaz9bTe6pgc51Dcmta5/FWsDCx72ktzscQwtNU8PIabvz252vP/WeNyX9eOQcMlmOWKN8hJ2Y0uPyC1nCPZ1xFn+odF3bYwX++4B9AGwGjW68l79hYGRgNjY1jRsGtDR6BWWlavXVY+nhnCeHk522Czazt1/VdhnCwWuaSKcKbptpvfnZ+Kusw7WtkoaGRwOnLNQUmFxDXEe7t8j4eq47b67PQuzQcMLCHAAiNoIGwravhS6gKp4FtRsHRrforIK7TxwvqS0tqO04FVD7S2mWlBVQ60JtpVNCWmkoTSVFKSmEpHFROKisT2v4QZMXE4H3Xmj4VV38FrY5RQA2AoImiB3VYx0syY3uxYMwXJ7Q8PGKhdCTROrXfhcNQf08iVcuk1zkI8Sx2FdE90bxTmkgj9R1BHNZ/jUeVmn3b1F9f2V7H2z4CJ2d7GP4rB/e0cvMcvReP9ovuAVzOnw5rXPq3w7sJwtmJxPdPqi0kEi6I15/Few4HsNE1tkFwHM7HpoNF5T2ExL2slLKD4nNlEgJDgwgscPKy0reT8excrQO/eW1/K6mkHe8oGu/qtdc/K3ak3PpZ7XdkcJLFlbl77K4xZHNJc4NsNd4EkDWt/BeLHbTp+9F6hFh5Q5j9gHi99gb39AruE7BYMHO/NJetF1N66BuvzV46nJZf14/DnzDLZo2OnoF6rhuMYlwaHCRgoBjQS0Na73vnfoFrcDwzDw6RQsZ4hov13VDFxZZ3HU9429f5ctCh0+8nX8u3ZCcxzHYORxsn7wNk7g9f30U3Buy2GkoTsMpjJLM1hoDjqKB12G/irDcSM9E0Tp4CtR8dV1OGuonyGvrSztvrVdHA4OKEVFGyMdGNA9aXP7YxNdhnPdvERIx3Rzdl0GyKDicRkiewbkGr2sahZvifrNSSDLYGt62KsHnX72V7huskdVq5pqtiHWb8dAuZJOXbnqDejhXukEcjdrs9m4QXZrsM3P5tCB+vosNVs2uUgcqjHqZjltzxh+O4V0EkjS73ZHGSI9ASMwvmQTt0pO7L4ISykVQZRdvRG+niSrPtGmHdxDmHlzfPRoHzPoul2HgLYXPdu93/AOWih8y5Yz7b36akFPBUIcngro5JbShRgp4KqH2lTLTkC2hJaFcAUwpSmqBrimlOKYVFRvUMjVM9RuRVZwUDlZkUEhUaQPCzXGex2ExD+8kY67JcGuIDiQNSP8UtK8qFxUVwHdnYIontw8UbHFpFkXY6OJ1Ko8MwwjjEdatFX1614LTydFm4TYcCbyyyNvmPeJAPwI+SlmNQaOcAK0Bsf5XXw5AY0bUNlxMK11u8zXUeH78V1oRTQPDmrLqVZzrm8QlcJGaWHNcL6HQ18f0V0KLEwB7S07dRuD1B5FX8RwXRkSOO4vn6brucLJy3yO3kFwIH5nUR/PXgSHVYWpa3kkXpKHJ4KjYE8BGWV7UwgTte0UXNp1czyJ9AtL2dYWwN8bN9bPP0C4nGW5piOjCfSlo+GtqNg/KPmsz1q+OjGVM1yrMKnYVpllO3MWeSEEnSiB8XE/Rafs82sOwefzcSsl2zkrER+DWnzsyBbHgoqGPy/UqT1b46DSnpgT2haYPCeExqcFUPCcE0JUQqEiFQjklJ5TSoGEJikKY5RUTlG4KYqMhFV3hQSBW3NUL2qLFJ4UDwrrmqBzVFVHNXF4lhC1xmaaFfxW8iBdPH5h8x5LvuYubxuL+C/wDpP0UvjUcnhbszx0px9C3/AD8l1qXO7PYYC65Cvpa7JiTlL6rgJSNFYEaZO2mk9AT8lqoznDIbkJ/OTXhnP7+K0rQuHwqu9ptkOs3vztaIMU5a6MDE8NT2tT2tWqyyWN97EPI2+58xf0Wtw7KaB4BZGR4dO4DfvvpstswLHPta6I0KZqRoQVpliu2I/wBW0n/tAeXvO/ytxwltQxj8oWV4/wAJknnjcwHkHHoATr8ytpBHQA6CvRTn1evIlapKTQE6ltzOCUJKTkChOCaAnBEFIQhApSUnUkKoYU1wT0haoIiE1zVKQmFqKhITHMU5CYWqKqvaonM0VpwTHNRVN0a5vGgBE75edLtli4Ha6xE2ubx8QAdFnrxZ6pdmxYd56/HVdosXJ7GtuN/XMPotCYVefF69U8qhxzP4b/KtPHRXzGqnEGExvA3LTXmiM32bZc2903VasRrMdi4i5z3Vo22/HN18lsWRqcT6Xr1XESY5pCu92nNhWmdYnA8KecXZacgJfm5Xyb4/7LZMYrbYwAjIpJi3rUIjTu7UoYntYqyZHHSlAShqfSIQJwRSVUCc1CECpUAIRChCEKhShOISIGpE6kFQR0kIT6RSojLUwtUxCaWqCEsTC1WMqaWIqoRSzfbJlxZqvKTfx/4WtMSilwDHinCwdws2bGpcZfsXBUGb8brHiAKWgEakZgAwZWCmjYDYBODCkhbqLugk+zA7hWGtUgatJqo3Btb91oHkEvdK2GoyqGq2RSBilLE7Iqmo2hKWqQNS5UEQanAJ+VFIECVrU4BFIgpGVKlpA0JUtIQCVCECgoSIV0SFJzQhaQ1KhCypCkQhIAJEiEClIUIVCBKEIU/QclG4IQl8CJwQhSASoQrFIE4IQp+ASpEKoEqRCBQgIQgVAQhT9ChCEIAICEIFQhC2P//Z;" vertex="1" parent="1">
          <mxGeometry x="680" y="480" width="95" height="95" as="geometry" />
        </mxCell>
        <mxCell id="I93GAZYGxNIZabXF53_L-2" value="" style="shape=image;imageAspect=0;aspect=fixed;verticalLabelPosition=bottom;verticalAlign=top;image=data:image/jpeg,/9j/4AAQSkZJRgABAQAAAQABAAD/2wCEAAkGBxISEhUSEhIVFRUVFRYVFRUVFRUXFRUVFRUWFxcXFRUYHSggGBolHRUVITEhJSkrLi4uFx8zODMtNygtLisBCgoKDg0OGhAQGi0lHyUtLS0tLS0tLS0tLS0tLS0tLS0tLS0tLS0tLS0tLS0tLS0tLS0tLS0tLS0tLS0tLS0tLf/AABEIAMIBAwMBIgACEQEDEQH/xAAcAAABBQEBAQAAAAAAAAAAAAAAAQIDBAYFBwj/xAA+EAABBAAEAwUFBgUDBAMAAAABAAIDEQQSITEFQVEGE2FxkQcigaGxFDJSYsHwI0JyktEk4fEzU4KyFUOi/8QAGAEBAQEBAQAAAAAAAAAAAAAAAAECAwT/xAAgEQEBAQEBAAMAAgMAAAAAAAAAARECMRIhQQMiMlFh/9oADAMBAAIRAxEAPwD3FIlQoESoQgRKhIgEqRKgRKhIgEIQgEIQgEIQgEIQgEIQgEIQgEIQgEIQgEIQoBCEIBCEIBCEKhUiEIBKkSoBIlSIBKkQgEqRKgRCEIBKkVLiPF8Phxc88cY/O9rfQE6oLqFhsd7VOHtdkhMmJedmws0P/m/KFneP+0/GsY58WGhiA272TvH/ANjaF/EqauV62qHE+NYbDi554oh+d7Wn4AmyvB2dq8bjGOfJi5XVvBCRCPVlEg+JWbdnhmdM6B/du+/nGagfH4DdS2rj23iftb4dHYi73EOHKKMhv9z6FeVrF8W9t2IdYw2HjjHJ0jnSO9BlA+azzm4eNzZWuDWvbl2tjgau+hXC7Q8F7r+LHrG4+eW9fRT5LjYcB9r+NZJc5bMwnVpa1lD8rmjT42vceBcXixcDMRCbY8Xru082uHIgr5ABW39nfbaTASChnieQJIyasX95vRws+aupY+l0Kvw/GxzRtlicHseLa4bEf58FYVZCEIQCEIQCEIQCEIQCEITAIQhAqRCFQJUipcR4vh8OLnnjiH53tb8iUF1CwfFfa5wyGwx8k7hyiYa/vflb81jOLe3CZ1jDYWOPo6ZxkP8AY3KB6lRce3qnxHi2Hw4zTzRxDrI9rfSzqvmri3tE4niLz4uRo/DDUTfVlO9SsxLMXOzOJLjzJJd/cdUMfSHGfanw/D6Ayyk7d3G4NP8A5vyt9CVneIe1XEGcQR4eOEOFskkc6S+lNaGgeq884PxF2IhML8r3t1yv/wDtaNaBGzttU9vc4mPumSObKwlzA/7zCN2X/MOXVZ2tSR1u1/a3GOD43YvEZiAQIqiZXT+GASK6nkuHwTijHQva5zY5QD/FcAXOB5ku1JVzh/E3yxvic8RTs0LiBR87WdxmCZDTzPHK8EExgEh2utlJNFoYEyZp8PMZJGm3AtyO8xyINK7iOMCeNpGEMrm6PLm6DTkRqudBx9kZL48OxjyKJzGq8G8lzMLxKWJxdG8tLtTVUdb22WsNdvHRfZ+7xOGuNsmha7+U+R5aFdDhhbbnyYpsscjTma7SjzBB5LK8Q4rLPXePsA2G6AD4BUkxNd9nEYGGaEtL4HnM2t2u/Le3Jc/DcefC10ZOZjgRkfZoH9/NUAq88JLiQNzfqVchpYsS2/esDwAPy0VrDzAEEG+ZGxrUa+KodwU6GL3hfn4WrcR6t7Mu3f2OURSvP2V5NjLfdvNU8cwNNR4k7r6BikDgHNILSAQRqCDqCDzC+OBJRsaak10HJeuey72lRwsZg8VYbnqOS9Iw7Wnj8OY7ja+ixPpa9tQka6xY1B1BSqshCEIBCEIBCEIBCEIBCEIBCEFBhfapxqSGJkMTywzB5c9ppwa3LoCNRebcdPFeC8UjddnV25Ph1tep+13FB+Laxp/6cQB/qcXO+mVYHERB48Rt4Lnv26yfTJkpCreJw7QSAaOYijsAOaq5T+niujBtoTUWgnws7o3B7DTm7FPxGMe9/eE+8dbaK1HkqyUrWBzySbOvid0hKRKgAktKkK0CklK/gOHiQW6aOMDT3yc3waFc41wLuGxvEmeN/wDMBVf50+im/hjhlWcHgJZf+nG5w51t6lauHg8Byd3EyWMgB7+8OcE862C5nEpXYXvIGA928gte7MCLAsA81i3/AEuOTjOGzRkd5GWgmg6rB+I0XZk7NtaWMfiKe/UDIarzVkGUYEse0vL6EYALjR10rwtJwXEStkbHibaMp7vvBRJ5e8VDGf4vw90Ehjcb5g9Qdj4HwVVrlrZML3hf9rja2vuzNdpQuhvqsmYTZA1q9eVdVYWPX/ZD7QRHlwOKfTNoJHHRhO0bjybvROxNdF7avjiNi9/9jXap2JgdhZXF0kABa4my6LYA+LTQvoR0USx6QhCFWQhCEAhCEAhCFQIQhQCEIQfPvb7Fu+3SZ+biP6aA9ea4rTzXY9qcLnYuQ7EOB+A3PjusvgMSQPeNhxsH6eS48zeXa+uH2iJExHWj8goI2lS9o5LxHkG/5/VQRyAHUrvNyOd9Wco1Fcrrp+9FBSsYiMtNnmPoquJBygAbnXzGwtIAytHMJzXA8wq32c+HolOHcCNPTRbkTWm4L2ddiGZ+8a1t0RRc7TwCv/8AxeBhf3U73l9C9HNaL8guJwbicuGIc3Wwbadj0scitVF9pmYJWPgFjQFpJHm47ELFl1qM3xrAxsdmgzujPNzXAA3oASNVyqXpj3M7qsS5hNAO/D8LXn3EIGNkcInZmX7pIP7K1CxUWuwkT8Rw4suzGSRr+HWvS1lRGp45HMBAcWA7+8Wg6dE6mxIt9nOINic4PsNkbRcPvNOuopdZ2Pw0cT2d4+YPGjX65TX4uWtLLd60f7Db4lRuxHIN9bPy0T46fJ2cJxyWOLumu02BItwFVQVLFSvf70ryd/vnbyHJUHSPPOh0GnyCZ3XVJzIltWX4oAVmJ9QPmovtB5D1TWtATnH4fqp9BA5x5/Nb/wBimJMfE4m3pI2Vh8f4bnD5sCwAWr9mM2XimEJ/71f3Nc39VKsfUqE20qjJUISIFQkQgVCEIBCLSWgVCS0hKaPOfa5wcEMxLQLHuyeI0yn4aj4rx7E4arq6O9cvAD19V7p7SngxNYeZv0/4Xm3E+zUrMO3FsFxusOoH3CDoXflPX/Zcd+67Sf1jzfiWCzlxB95u/iAN6VTg0AdMwaGrJ6aA+vJW+I2Jnen0sK7wTCNBEjejgfA3p8l23Ixn2n4hgQBY253yvZcY2LHqtaRYXE4jgyLcB7oqzY0s6KcVbHNtODUGVg534AfqVEcZ0b6m/ouvxrGphGrEUjmA04tB31oKj3zz4eWn0TcnVa+M/abVyXEN3L8xPTU+p0UDsRtTfXX6JgYP31TwtZIfZpe8868tPpqmCHqpiUwlNqYYGfv/AJTgE10wHMKfDwvePdYTr8PVZv8A1URUZcu03s/K4DUAnkLPkbXM4hw98LsronAnZzyad1LaofVc9l8WyxVMwT8OHPdkaNeVmkwxHmQP6V1uyeBY/FxNLiGA5nkb5W6n4cj4WlsSSp8J2ameav4NBJ9dl05Oy2JwZZjI7/gvZISd2lrgQSBoW2Ba9iifg47GeHK0Ee4cxJFgZRz236EFcfiHaljdWssCjrQ1FmyBy0C4b366ZG+7HcXkxeEixEsYjfICcouqDiGubetEAH4rtqnwzFiWGOUaB7GPrpmaD+qtWtyudOSptotVDkJLQgVCRCaC0hKakUDsyQuTSU0lTVYP2kz+8wHUNA06kk/7LSdmIR9jja4AhzTYIsEOJsEcxqsN7Rnk4kDkAPoP8rf8JGWCJvRjfoufPtdOv8YwnF/Y7hZZHyRzyxZiTkyte1pJugTRrwWe7U+zhmAgE8OIe821pa9rRZN6gt2228d17KZFkPaZJ/ox4ys/9XrSTb68ehnDxfMaEcwVQ4824x4OH0Kt4yMtPeMH9bfxN5keIVTjDriB8R9Ct8+rXA7sJ4CapYoi77rXHyF/8LuwaQgKLEZ2miMp6EfsKHK49StSJq5YvdTRYdzvuscfIH67Ko2B2hA8BWpte48C7JNMUTphT3RtcWDUAkAlZ76nKya8bxPDZg3Pl05gGz50Fy8jndT9F9JjhmHw9Z2MY0mrdRIrf3d6Xj/b/BRR4omDL3bxmblFNuyDlB2GgPxU5/kt9i3mMa2A816D7KuC98ZHPLe7aWjLYzku0zAfh2BPUhYhmFe92Voc4nYAEn0C1nCeHYzDxAPicxr5BlzNolx0IF61XXop/JfrLTmPVmwYaDNfdivui8zyeYrWis924xMM2EkjYCXZS/M5g0MTmu010tuaz9bTe6pgc51Dcmta5/FWsDCx72ktzscQwtNU8PIabvz252vP/WeNyX9eOQcMlmOWKN8hJ2Y0uPyC1nCPZ1xFn+odF3bYwX++4B9AGwGjW68l79hYGRgNjY1jRsGtDR6BWWlavXVY+nhnCeHk522Czazt1/VdhnCwWuaSKcKbptpvfnZ+Kusw7WtkoaGRwOnLNQUmFxDXEe7t8j4eq47b67PQuzQcMLCHAAiNoIGwravhS6gKp4FtRsHRrforIK7TxwvqS0tqO04FVD7S2mWlBVQ60JtpVNCWmkoTSVFKSmEpHFROKisT2v4QZMXE4H3Xmj4VV38FrY5RQA2AoImiB3VYx0syY3uxYMwXJ7Q8PGKhdCTROrXfhcNQf08iVcuk1zkI8Sx2FdE90bxTmkgj9R1BHNZ/jUeVmn3b1F9f2V7H2z4CJ2d7GP4rB/e0cvMcvReP9ovuAVzOnw5rXPq3w7sJwtmJxPdPqi0kEi6I15/Few4HsNE1tkFwHM7HpoNF5T2ExL2slLKD4nNlEgJDgwgscPKy0reT8excrQO/eW1/K6mkHe8oGu/qtdc/K3ak3PpZ7XdkcJLFlbl77K4xZHNJc4NsNd4EkDWt/BeLHbTp+9F6hFh5Q5j9gHi99gb39AruE7BYMHO/NJetF1N66BuvzV46nJZf14/DnzDLZo2OnoF6rhuMYlwaHCRgoBjQS0Na73vnfoFrcDwzDw6RQsZ4hov13VDFxZZ3HU9429f5ctCh0+8nX8u3ZCcxzHYORxsn7wNk7g9f30U3Buy2GkoTsMpjJLM1hoDjqKB12G/irDcSM9E0Tp4CtR8dV1OGuonyGvrSztvrVdHA4OKEVFGyMdGNA9aXP7YxNdhnPdvERIx3Rzdl0GyKDicRkiewbkGr2sahZvifrNSSDLYGt62KsHnX72V7huskdVq5pqtiHWb8dAuZJOXbnqDejhXukEcjdrs9m4QXZrsM3P5tCB+vosNVs2uUgcqjHqZjltzxh+O4V0EkjS73ZHGSI9ASMwvmQTt0pO7L4ISykVQZRdvRG+niSrPtGmHdxDmHlzfPRoHzPoul2HgLYXPdu93/AOWih8y5Yz7b36akFPBUIcngro5JbShRgp4KqH2lTLTkC2hJaFcAUwpSmqBrimlOKYVFRvUMjVM9RuRVZwUDlZkUEhUaQPCzXGex2ExD+8kY67JcGuIDiQNSP8UtK8qFxUVwHdnYIontw8UbHFpFkXY6OJ1Ko8MwwjjEdatFX1614LTydFm4TYcCbyyyNvmPeJAPwI+SlmNQaOcAK0Bsf5XXw5AY0bUNlxMK11u8zXUeH78V1oRTQPDmrLqVZzrm8QlcJGaWHNcL6HQ18f0V0KLEwB7S07dRuD1B5FX8RwXRkSOO4vn6brucLJy3yO3kFwIH5nUR/PXgSHVYWpa3kkXpKHJ4KjYE8BGWV7UwgTte0UXNp1czyJ9AtL2dYWwN8bN9bPP0C4nGW5piOjCfSlo+GtqNg/KPmsz1q+OjGVM1yrMKnYVpllO3MWeSEEnSiB8XE/Rafs82sOwefzcSsl2zkrER+DWnzsyBbHgoqGPy/UqT1b46DSnpgT2haYPCeExqcFUPCcE0JUQqEiFQjklJ5TSoGEJikKY5RUTlG4KYqMhFV3hQSBW3NUL2qLFJ4UDwrrmqBzVFVHNXF4lhC1xmaaFfxW8iBdPH5h8x5LvuYubxuL+C/wDpP0UvjUcnhbszx0px9C3/AD8l1qXO7PYYC65Cvpa7JiTlL6rgJSNFYEaZO2mk9AT8lqoznDIbkJ/OTXhnP7+K0rQuHwqu9ptkOs3vztaIMU5a6MDE8NT2tT2tWqyyWN97EPI2+58xf0Wtw7KaB4BZGR4dO4DfvvpstswLHPta6I0KZqRoQVpliu2I/wBW0n/tAeXvO/ytxwltQxj8oWV4/wAJknnjcwHkHHoATr8ytpBHQA6CvRTn1evIlapKTQE6ltzOCUJKTkChOCaAnBEFIQhApSUnUkKoYU1wT0haoIiE1zVKQmFqKhITHMU5CYWqKqvaonM0VpwTHNRVN0a5vGgBE75edLtli4Ha6xE2ubx8QAdFnrxZ6pdmxYd56/HVdosXJ7GtuN/XMPotCYVefF69U8qhxzP4b/KtPHRXzGqnEGExvA3LTXmiM32bZc2903VasRrMdi4i5z3Vo22/HN18lsWRqcT6Xr1XESY5pCu92nNhWmdYnA8KecXZacgJfm5Xyb4/7LZMYrbYwAjIpJi3rUIjTu7UoYntYqyZHHSlAShqfSIQJwRSVUCc1CECpUAIRChCEKhShOISIGpE6kFQR0kIT6RSojLUwtUxCaWqCEsTC1WMqaWIqoRSzfbJlxZqvKTfx/4WtMSilwDHinCwdws2bGpcZfsXBUGb8brHiAKWgEakZgAwZWCmjYDYBODCkhbqLugk+zA7hWGtUgatJqo3Btb91oHkEvdK2GoyqGq2RSBilLE7Iqmo2hKWqQNS5UEQanAJ+VFIECVrU4BFIgpGVKlpA0JUtIQCVCECgoSIV0SFJzQhaQ1KhCypCkQhIAJEiEClIUIVCBKEIU/QclG4IQl8CJwQhSASoQrFIE4IQp+ASpEKoEqRCBQgIQgVAQhT9ChCEIAICEIFQhC2P//Z;" vertex="1" parent="1">
          <mxGeometry x="490" y="150" width="112.14" height="84" as="geometry" />
        </mxCell>
        <mxCell id="I93GAZYGxNIZabXF53_L-3" value="" style="shape=image;imageAspect=0;aspect=fixed;verticalLabelPosition=bottom;verticalAlign=top;image=data:image/jpeg,/9j/4AAQSkZJRgABAQAAAQABAAD/2wCEAAkGBxMTEhUSEhIVFRUXFRcVFRUWFRUVFRcVFxUXFxUXFRUYHSggGBolHRcVITEhJSkrLi4uFx8zODMtNygtLisBCgoKDg0OGBAQGy0lHyUvLS02NS8tLS4wMzUyLi0tLjUtNy4tLTAtKy0uLi0vLS0tMi0vLy0vLS4tLTErLTUtK//AABEIAOEA4QMBIgACEQEDEQH/xAAcAAABBQEBAQAAAAAAAAAAAAAAAgQFBgcDAQj/xABEEAABAwICBwMJBgQEBwEAAAABAAIDBBEFIQYSMUFRYXETgZEHIjJCUqGxwdEjQ2Jy4fAUM4KSFZOy0kRTY6KzwvEk/8QAGwEBAAIDAQEAAAAAAAAAAAAAAAMEAgUGAQf/xAAzEQEAAgEDAgMFBwMFAAAAAAAAAQIDBBESITEFUWETIkGB0TKRobHB4fAGQnEUIzNSYv/aAAwDAQACEQMRAD8A3FCEIBCEIBCEIBCEIBCqGlen9PSExt+2mH3bD5rT/wBR+xvQXPJZRpBpbWVlxLKWxn7mO7WdCNr+8lQZNRSnT4tnpPCc+o97bavnP6NfxvT6hprh0wkePUh+0dcbiR5oPUhUjE/K/KbimpmtG50ri82/I21v7ioPAfJ3V1FnFggj9qW4JH4Yx5x77DmrxhnkyoorGZz53b7ns2dzWZ+Liouea/aNoXpweH6bpeedvTr+XT75Z7W+UHEZDnU6g4RsY332v70zbU4lNmJK2S/AzuHuyW4U1DTQC0MEUfNrGg95tcpNRiHNeTit/dZ7XXYo6Y8MR930/ViP+D4iczFV94lHxSTBXx7RVs5/bj3ha5U4hzUVU4jzWE0iPis01d7d6Qz6k0nrYzZtXODwdI5/ufdWXDfKNXNtrOjlH42AHxZb4JWITseLPa135gCq7VUjBnHl+Em47icwsPaWr2lP7DDmj3qRHyaZhflKjdlPC6P8TD2je8WBHcCrdhuLQzi8MrX8QD5w6tOY7wsCp5dxUrS7Q5pLXDY5psR0IzCmpqZ+KhqPCKd69PxhuqFnODaZTxWbOO2Z7WQkHfsd32PNXvDMTinZrxPDhvGwtPBzTmCrVMlbdmkz6XJh+1HTzO0IQs1cIQhAIQhAIQhAIQhAIQhAIQvHOABJNgMyTsA5oEzStY0uc4Na0EucTYADaSTsCyTTTyhPmJho3FkWx0ouHyfk3sbz2nlva6eaWurHmGIkUzT07Vw9Z34OA7zuty0R0TNSe0kuyAHMjJzyNrWcBxd3DPZrc2pte3s8TqdD4Xj02P8A1Or+UfzvPp8Pyh9HNF5qt2rE2zQfPkdkxvfvdyGfTatZ0d0SpaOzmt7SXfK8AkfkbsYOmfMp/E6OJgjjaGMaLBrcgP15prPXc1JjxUx9Z6yravXZtVPGvu08vP8Az9OyTmrFH1FdzUVUV/NRlRX81lfMjw6GZStTX81F1FfzUXUVyjp6zmqt9Q2uHw/0SNRXc1GT1iZTVKaPkJVa2ds8WhiHeepTKSVekLzVUM5ZlcrgiCGuN1IUc9ky1UtmS9jLMF8EWhZ6WQEJ5Tl8ThJC8scN438iNhHIqAoZ1YKWS6t48m7TajT8fh0XrRzSRtR9m8BkwHo+q4DaWX+G0c9qn1l1RSHJ7CQQbhwyLTuP6q46K4/247OSwmaM9we32gOPEfVbHFm3923dzes0XCPaY+3x9P2WBCEKw1gQhCAQhCAQhCAQhCAWb+VPSQj/APDEcyAZyNzTm2Pv2nlYb1e8axFtPBJO/ZGwutxO5o5k2HevnqSqfNI6R3nSSPLjzc47By3BUtblmlONe8uh/p/Qe3yzlt9mv5/t9E3oxg38RJ51xE2xeRv4MB4n3DuWkGpaxoY0BrWizQMgANgAVdw/Vp4mxt3ZuPtOO0/vcAuFRiXNVcW2Kvq2eri+ry/+Y7fX5pqoxBRlRiHNQtRiPNR02Ic1jfNKbB4f6JmevUfNWqIlrU3dOSq1sky2uLRRCRlq02dNdNe0RrqKd5W64Yh31kXXDXRrrHiz4O90XXDXRrpxODtde3XDXRrpxOB5DJYqcoKhVcSKRoajNS45mJVdTg5VX3C6jcVyxWmdA9s0RtY6zDwO9p4i3iCorD6mxCttMBNGYzvGR4HcVsae9G3xcxqKzhvyntPdZMExNtRC2VuV8nN9l49Jv73WT9Z1oZXmCqMD8my5WO6Vt7eIuO5q0VXsOTnXdz2t03sMs1jtPWP8BCEKVUCEIQCEIQCEIQZz5Z8S1YIqcH+Y8vd+WO1gernA/wBKzXBDaVpPq3d37veVZPK9Va1eG3yZCwd5LnH4hVCml1TflZafU23yz6Po/gmninh9YjvaJn7/ANlmqMR5qOmrlGyVJK4FxKhm0tji0tanctWSuDpSVyui6wWorWOxesjWSELzZl0L1kayQhNjoXrI1khCbHQvWRrJCE2OhesjWSEJsdC9ZOKaRNLrpE5exDG8RMLLRTq14HW7M1RaOVTmHVOq4KxS23VoNbp4vEwktMAWTNmZkfNkaeD2n6tB71qNBVCWNkrdj2NeOjgCsu0mk14Y3cC4eIB+Sufk7qdegi4t12f2vcB7rK7p7e/MefVzfieLfS47z3iZr/PuWVCEK40AQhCAQhCATavqRGwuKcqqaT4kATc+axpe7u/ZQZNp5ITXSk7bM/0BQN17WVbpZXyv2vJd0BOQ7hYJF1ps8f7kvp3hN4nR4tv+sF3RdIui6h2bHkVdCTdF02ORSEm6LpscikJN0XTY5FISboumxyKQk3RdNjkUhJui6bHIpKa5c7r0FNjkkqaRSUEyg4np9DKpKqWau6erqzWhA/F8irr5Lp7UtjsMsg78ll88+VlPeSzGCJ5qUnKQdrHyewWdbqAD/Qrel+38nN+OVimliPO36S2xC40kus0FdlsHIhCEIBCEIG9bMGtJ5LI9NMQJp5DfOR4b3bfl71ftMK7Uidnty8Vlml5+zhb+In4IKzXQ6rGO6g+63wPim4KmMShvEO/4lQTHLV6iPfmXfeC5dtNWno63RdIui6g2bnmXdF0i6Lpscy7oukXRdNjmXdF0i6Lpscy7oukXRdNjmXdF0i6Lpscy7oukXRdNjmXdF0i6Lpsc3aN6dRyKPuujZEYWnc7mkJs1ou5xDWji4mwHipnEoP4HEoSzYwxd41Gh/j53ik6A0HbVQlcPMh87lrn0B3Zu/pCdeUcXqWn8MfxKv6Su28uP/qDNytWkfBtGFyZubzuOhz+qklWsCnu2F/tRMJ62H1VlVxzYQhCASJXWCWmte+zSgz/TyszY2+1w+KqOlbbshPP6KR0zqbzR/nCb45Fr0oPsuB8QR8ggjZ4taHoSPn81UKh2q+3HP6q74X57HN5Bw+B+SqGlFKWjXHqm/dv/AHyVPNT3nSeG6ma4d47x/PycgV7dMaSq1gnYKq2rMS6TDqK5KxaC7oukXRdY7JeZd0XSLoumxzLui6RdF02OZd0XSLoumxzLui6RdF02OZd0XSLoumz3mXdF0i6Lps85l3XhzyC9jYTsT+jpLuawek42vwG8+C8mdmM3mekL/oPTdlTMG913k8bnL3WUFpw/WnPIsHgAfmrZhoDWgDIAW6ABUusJmnH45Ce69gthpo91xPil4nJ0apg3mw03KNv+kK3N2KsPbqiNvstt4NsrNFsHRWWqKQhCAUZjD7NKk1E4z6KDHdMn2ka7g4fFSuGN7SN0ftNLR12t94Hio7TSK7XfvYvNHqu4BBzsCOoQMsNl7KQX2A6juhTrSHDbg5XBHiCnWlFANYTNHmSi/R3rDuN11wWo7eIxu/mR5Hm3c7981Hkryhc0eo9ldj1VC6nlLDs2tPEfpsUhDNldWvSnR/XaRsIzaeB+ioUbnRPMcgsR+7jkoLV5x6tvhzTp79PsT29PRNNddLITJjt4TqGqI2i4VeaN3TUxMdXt0XThnZv36pSnUDvVIPRYpovua3RddH0zxtaVzLTwKHIXRdeWXtuSHIXRdeiMncV2ZRvPqocnC6E8bQ8T3Bd2UgGewcSvDmjtU8E6hpN7suA3lOmgD0R/UfkEF9vqo7ZIjskrS1u/SHlgFM6N0lz2h35N6ce9RlBSmV34fjyV4wmisBwTFSb26q2t1NMGOYh7jNV2NOfad5je/amOhOG9pUtJ2MzPcozFq7+JqLNzjj81vN28/LxWj6H4X2MGsRZz8+5biteMbOFzZJyXmx9Vv+0HUfEX+Ks8ewdFUona1Qwc7+H/ANCtwWSJ6hCEAozFG5HopNMq9uRQZbpJTXuFT8Dm1HFh9V3uWj43T5lZxjcBimDxsdkfl++aC9UGrKw07zk/OM+zJ+qqddDLSzdo0Wew2LTsc3e0/vgpDC6nWba+YVilgbWR2Nu3aP8AMaN/VAzidHVRCWPYciN7Xb2uG4hU3SbRgSDZZw9Fw2j6jku7jNQzGSMXaTaSM7Hj5O4H4jJXCgqoayPtIjfc5pyew8Hjd12Hco7036wu6fVcY426ww2eKSndqyDLc71T0PyTqKYFafjGj7XggtBB2gjJUHFNEZIyTCcvYcfg76+KhtG/ds8WSa/8c7x5fH9zOy6RyPbsJUc6Z8Z1ZGlp5i3gd6cR1AO9RzSV3HqK27TtKTZikg259QnEeLk7WtUW2VdBIsJrCzGWfNKivB+7augq/wALAokPShIseKSMkpX+K5tHQXSXVA36x9wUcJV72q82ZRePjJ/253Wb0zPiUgv37TzzTIz813paWST0Wm3E5D9e5YTWZS1yVjsW6dPMPw50huQQ33n6BSeFaO5gu8489g6BW6gwsC2Syx6eZVtV4lXHHfqZYVhdgMskw0vxvsx/CQH7Rw89w9Rp3X9o+4Z8F7pVpY2G9PSkOm2OeLFsXEcHP5bBv4LjoRoo+R3ayXuTrEnMkk3JJ3krYY8cUhyer1d89t5S2gejVy0uHmi1+vBaFiEoa2w2WsF3pqZsMYa0WyVa0mxPUYSNuxo4uOQHefddSqZ3oyNed79zfNHXafjb+lXFVzQ2j7OFt9pzJ4k7SrGgEIQgFxqG3BXZeOCCn4xTbVStIcL7SNwstMxOnuqzVU21BleE1bmO1XbWmx+vernTPNhIw7M7jaCoDS7Bix3bMH5hxCTo5jWqRfNp2j970F6fHFWt1XgNmt3P/VULF8CqKOXtoC5jhvG8bw4bHN5HJXQ0gc0SQm422G0J7T4k17ezqG6w2a3rDqgrGB6bQzWjqgIJdmv9w49TnGeRy57lZKjDGOGY2i4IsQRxBGRChtINAmSgvgIO/JU2B+IYcSInO7O+cThrxH+g+iebbHmvJiJZ1yWr2XHENEg8EANeOBAPuKqWI6BNBJa10Z/CcvA3U9hXlLhOVTC+F3txHtY+pYbPb3FyuGG47Tz2ENRBKT6muGSf5b7O9yjnF5Llddb+6N2Lz6JTt9GQHk4FvvF02dglUPUaejh87LfpqOP7yEjuITZ2FUp3ELCccrFddj8pj5/VhAwyp/5R8W/VdGYXUH7o97mfVbh/gNN7R8F6MDphvKx9lZNHiGOPP8PoxeLAKg+yOpJ+AUjS6JvPpPJ5NFvebrXGYdTDY0lOHRNjbrdmGNHrPIY3+51gvfYz5sZ8TrHaGeYboeBYiO54uzPv2Kx0uANb6Vl5iunFFCDeoEh9inb2p6a+TB/cqZinlJnku2khEPB7vtpuoBGow9zuqzrhrCrl8Sy36R0XuvmgpmdpM9sTN2t6TrbmMHnPPQLP8d00mqSYKRroozkXffPHMjKNvIG/E7k0wrRSrrZO0lL3F3pPeS5x/qO7luWqaK6CxQAHVD37yfRB5nepYiIULXm3dUtCdAj5skwsNwt7gFrdFRNhaMgLbBw+pTiKFsY4nj8gNwTWsnAGs7uXrEzxSqsCVQGTGrrA0ZxxOz4GTYe5uzrdGm+kpBEER+1fst6jDkXnnuHjuUxoBg4jYMkF9w+LVaAnaRE2wS0AhCEAhCEDapiuFA1tMrM4JjVQXQVCsoQ9paQsv0hwd9LIXtBMZNyBu5j6LaZqdRmJYY2Vpa4bUGdaO4+6Mgg3afAjkr5TdjVN1mENfwWbaQaOy0ry+NpdGTcs+JbwPxXmD4wR5zHHLbuIPBwQaQIZYDlcdNhTo1cco1ZoweYUfgeljXANmt13KxDD4ZRrMNr8MwgqeJ6B0s9zG4NPNVDFfJdO2+p5w7itUfg8jdmfRDDI3bcIMVZhmJ0v8qSojA3Mkka3+0Gy7t0rxdm2Z7vzxQv95YT71tTZydtj1AKDTMdtjjPVqDGRp9iY2iM9aWL5NSXad4odjmt/LTQj4sWz/wCCxH7mLwP0XSPAY90UQ7igwyTSDF5cjU1H9BEX/jDVwi0Trahwc9r3u9p5c939zl9Cw4M0bNRvRg+adswxo2uce+w9yDFML8lshsZnho4E/IK9YFoFTxWLYy88Xea39VeYqZjdjQOe0+JXUlAxpsNa0WNreyBZv6p0XWyASZpgMybKExHGw3Jv6oH1dWNYLk5rOdNtMBENUedK7+XH/wC7+Dfjs4kRelem2q4xQWlm2HfHGfxkek78I77Kt4Pg75HmSUl73G7nOzJ/Tls4IJLRPCnySGWUlz3nWc47z9NwWz4JR6rQq3othOqAbK8QR2CDqhCEAhCEAhCEAkOaloQMKinTCSBTbgm8sCCAq6FrwQ4XWdaT6CkOMtOS13L4EbCORWtPhXB8CDAW174Xas7TGfaAJYeu9vw5qzYTjz47Fj8jwN2lXvGdGIpwQ5ov0WeYroBNCS6meW79UZtPVpyKC+YVpqDYSN72/RWejxuCTY9vR2XxWAurqiA2ngOXrR/7XH5p/RaSxHLtQ08H3Yf+61+4oN+EEbs9Vp6foj+CZw96ySixp4za424tdceIUvT6Uyj7x3eboNGFI3mughCocelsnte4LqNKZPaPggvIAQ54G02VFdpE8+sfFR1fpSyPOWZjPzvAPgSg0GbEGN9a/RRNZj4Ho/UrL6/ygw7IhJOfwN1W97nWy6AqGmxbEKnJgFOw+xdz/wC8jLuA6oL3pDpdHCLzS6pOxo86R35WDPv2c1QcRx6qrCWxB0ER2m/2rhzcPRHJvinGH6JgHXkJe45lziXOJ5k5lWKkwsDIBBXcG0fDLWCvuBYNsNk5wjBr2uFb6GiDQgXh9KGhPl4AvUAhCEAhCEAhCEAhCEAkkJSEHFzFxfEnZCSWoGDolxfCCpFzFzdEggqzB45PSYD3Ks4n5P6eS/mgdyv7olzdGgx6q8loabxuLTxaS0+ITN2hFaz0Kmbve53xJW0uiXJ0KDFjo3iQ/wCJf/az/avRo3iJ21Undqt+AC2N0HJc3QIMhGg9Q/8AmVEzhwMjyPC9k7ovJ1E3MgLTzAkGnQU+l0ZiZsaPBSDKEDINVgbRX3JxFh3JBX4cOvuUzQ4TyUvT0IG5P44gEDelpQ0J4AvUIBCEIBCEIBCEIBCEIBCEIBCEIBCEIPLLwtSkIOZYkFi7osgbmNIMKdaq81UDMwJJpk+1UWQMP4XklNpE+siyBs2mC7NjC6IQeAL1CEAhCEAhCEAhCEAhCEAhCEAhCEAhCEAhCEAhCEAhCEAhCEAUIQgEIQgEIQgEIQgEIQgEIQgEIQgEIQg//9k=;" vertex="1" parent="1">
          <mxGeometry x="280" y="150" width="55" height="55" as="geometry" />
        </mxCell>
        <mxCell id="I93GAZYGxNIZabXF53_L-4" value="" style="endArrow=classic;html=1;rounded=0;" edge="1" parent="1">
          <mxGeometry width="50" height="50" relative="1" as="geometry">
            <mxPoint x="340" y="180" as="sourcePoint" />
            <mxPoint x="480" y="180" as="targetPoint" />
          </mxGeometry>
        </mxCell>
        <mxCell id="I93GAZYGxNIZabXF53_L-5" value="" style="triangle;whiteSpace=wrap;html=1;rotation=-90;" vertex="1" parent="1">
          <mxGeometry x="340" y="310" width="60" height="80" as="geometry" />
        </mxCell>
        <mxCell id="I93GAZYGxNIZabXF53_L-7" value="rel&lt;span style=&quot;background-color: initial;&quot;&gt;Ã©&lt;/span&gt;" style="text;html=1;align=center;verticalAlign=middle;resizable=0;points=[];autosize=1;strokeColor=none;fillColor=none;" vertex="1" parent="1">
          <mxGeometry x="350" y="290" width="40" height="30" as="geometry" />
        </mxCell>
        <mxCell id="I93GAZYGxNIZabXF53_L-8" value="" style="ellipse;whiteSpace=wrap;html=1;" vertex="1" parent="1">
          <mxGeometry x="680" y="265" width="120" height="80" as="geometry" />
        </mxCell>
        <mxCell id="I93GAZYGxNIZabXF53_L-9" value="+&amp;nbsp; &amp;nbsp; &amp;nbsp; &amp;nbsp; -" style="text;html=1;align=center;verticalAlign=middle;resizable=0;points=[];autosize=1;strokeColor=none;fillColor=none;rotation=0;" vertex="1" parent="1">
          <mxGeometry x="710" y="290" width="60" height="30" as="geometry" />
        </mxCell>
        <mxCell id="I93GAZYGxNIZabXF53_L-10" value="" style="shape=image;imageAspect=0;aspect=fixed;verticalLabelPosition=bottom;verticalAlign=top;image=data:image/jpeg,/9j/4AAQSkZJRgABAQAAAQABAAD/2wCEAAkGBw8QDxUPDxAQDxUVFRUQFRUPFRUVEBUVFRUWFhUVFRUYHSggGBolHRUVITEhJSkrLi4uFx8zODMtNygtLisBCgoKDg0NFg8QFS0dFR0tLSstKystKy0tLS0rKy0tKystNystKystKy0tLS0tLS0rKystKy0tKystKysrKystLf/AABEIAOEA4QMBIgACEQEDEQH/xAAbAAEAAQUBAAAAAAAAAAAAAAAAAQIDBAUGB//EAEAQAAIBAgQDBQUFBgQHAQAAAAABAgMRBBIhMQVBUQYTYXGBIjJSkaEjQrHB0QdDcpLh8BRic7IzNGOCosLxJP/EABcBAQEBAQAAAAAAAAAAAAAAAAABAgP/xAAhEQEBAAMAAQQDAQAAAAAAAAAAAQIRITEDQVFhEiIyE//aAAwDAQACEQMRAD8A5YMAiAACJBACpBBIQAAUJIAEggASCABIIJAAgkACCQAIJAAAAAAAAIKQQSUAQSAAAQAAUAAAABAkgBUgAAAAAAAAAAAAAAAAAAAAKQAEAAFAAECSAFSCABIAAEixXSpSk8sYuT6RV2BbJNlX4HiYQzypvrb7yXW3P0ua0mwABQBAAEkACSAAAAAAABcAEFIAKBJAAkEEgAQSEAABJm4DhVetbu6cpJ87ez468/Qw8vM3vZjj8MGpZ5OCbX2ju4K9lllDlG/3lr16mbdLG84V2E2liJ2/yx/U6vBcMoYeNqcIx8dL+dzHpYmliHGSap1krwcvajqnrDWzun52KcVW1yYmleDlki37c57e01BWinrpo9Nneys1el3GRPEyelWkpxbtFQvNvS99rersariPZejO86dOE+bi9J+klv66mzo0KsJezLvYSsrTaWVc+W3gki3Tox9p4Sa5VJRjr3mbWNpyuknZ6pNFs2S6cZiez1GV1BypS6S1XqnqjQY/AVKMss15Naxfkz1vuKOIvSqWjVjd3gneGuntNK+68HrbbTmuN8NkoTpVVfRyhJK6bSumvHw8Tnbcb9N8ynOV5+QW8PiFUu1GSS0WZWb9ORcOjAAAAAAAAAACAACikABAAAAAFCSCQhY2HCuEVsRJKEWoveck8i9efkjbdj6OEm2qijKte8Y1PdcbL3eTle+j9DpsTilQk51a1KnStaMHBqpdLk07y8kjFy9mpHk2Iwc8JUcHN+80n91u9rOL5mRCaqJwnG6tq1tY6HjvF8PWm3ToSd07ylLJmfJqKT+vyOE4hiajTgo5FJ3yrXS+zfP8DU6jvOG8fhSwqp16cqk4PLGaqKEO7XuuTyt5uXyOt4Jxyqsk8RCahOKbjPWrT6NSss8eeqT19DxrhmMjJd1WSlHZN/d/odPg+I4rDrLSrzyfBVtUp+imnb0M3Gz+Wt/L115Y3qUZVK6ldxisipxe+yyt3em+nTdkUquFrSjOlKScFny03aDzq2bVe2mrpSXicL2e7SSzqEnClOTSvth5vpNfu347eWx1FPjUHeOGhCtJNqfczjKEZN6tuOr152s+omc9+Jr4bvGQjVs53sr6KTUWnvmSdntzMDFcXoNOnGPf30tHWH836XNbiYyazY2uqcd+7g1b15fiaXiHbPD0LxwsFfbNa/oc8vW3zGbWYxe4r2WVSk6vs0alm0m7Z/Brr47nCF7iXaTEVndza9Szc16X5a/YyAAdWQAAAAAAAAC4IKCQCoAAAAABJAAlEuV9XqQAL2Fw1SrLLThKb3tFX06voi7V7DYipJTqOnFLXu07ylbk+S+pVwriU8PPPCzTVpRltJdL8vNG34r2o4aoxnVUp1I+1Gm6Sc4t32qN2tdb/QxlbLxqSNDi+CtK1OEYSXK1k/A108TUoRSqweui128nzRc4v24r1G1QhCgn96ynV/masvRI02MxNatBVa05T1aV9l5LZbGpv3Qr8UqTbv7Efhjz6X6mV2Z4zWo4h1ISlfLJb29na1ly8PA0bfQzeCr7SX8EvyGU4sdBjuKVKzbnJu/VmFcNBI5602g2pr6FNynGKV25JJLdtuyR6DwTsLVqWliX3UfhjrUfm9l9TWLOTjbCx6xU7C4FxsoTg/ijOV/rdfQ4XtL2Zq4N3f2lNu0ZpbPpJcmbZaEEsgAQSABBIAEE2BBSCCSogkAKAAIEkACTL4bw+piJ5KaXVt+6l1ZiG27OcV/w9V5oucZ2jLIrzW9mlz3ehnK2Tc8q21LhFOg4WozxcpKUlK3sLJa7y293XdnFdsYwnXdemlLSzjmjLLu02ovS99melOpW7iccPXp1aFWLilOKkrdMzTfNqzs1fwPOeOcPVGbu80pu7t7u97Lwuc5d9dJLr6aLi0E1ComnmjZpfdabWV/K/qjJlD/8i8r/AFuVcYhBU1ljl2duj53LuJjahl6QS+h1l4xfLnmbHgkfam+kH9Xb8zAcTa8BheNd9IQ+tWK/C4y8EZZKCKrHKujN4D/zdFpXtVhK3lJP8j2rhPGadV5H9nP4W9H/AAvn5bnjPAKGbEQze6neV20rNW3SdtWlsdpXp4Sm+7w1arWlmTTlCcYxprRRWbS6s22ktWiflpLJXpNzFx+HhVpyp1IqUZKzT6fqa7gGNnOm41G5OLVm92n18dDOqVTrLuMWPHeOcNeGrzovVJ3i+sX7r/vozXnc/tEw6cadZbpum/J+1H8H8zhioAEFEgEASAAKAAEAABIIJAAAAZXC3avS/wBSH+5GKZGA/wCNT/jh/uQHff4F0qvfULRu/tKclelU8WuUl1XqaWeBqOLTUK6bcpQqaOV7e5PeDVtH4nVz1RrJKzOdwlptwvGuCxcHVpueSNozi4rvI9FVi3o+kk7P6LnMVKclllZW66X9dj0/jdCcoN0YrPlavzkndOC69bM4XhXDnXrxo3yX3bV7W8OZnHeO43Ouekpx9lNa7pNO/Qz+Br2K66qkreCk2/yPQ3+zypLDzcaSTslCpOSS1es7OST228ebOWw3Dnhak6danKpeyXcuKWaLekm3otOVy5ZcJGuUXsbPA8ObladOrLRO1ON73e2bZPn/AGr7fAcOqQviMROGFpJXjCME5OS2UZNZpPy59EXcRxSrJWw/eYVP4ZyzpcrJPLHx0e7Octz8N3jPwGDlQi54qFDC0bbTs7vdavWo/JehanxjM2sFQjG/76tFL1hTW/8A3fI12F4dmkpzcqkviqtyl82dFhcIkr2NT0/lm5bdFw3DKhTyucqkpPPOc/elKyWy0SskklskTWxSXM1eN4oopttJLdt2SOVx3a+m240ftH8T9z+p0ZbXtrjE6EYc5TT9Ip3f1RxJdxeMnWlnqSzPbwS6JFo1EAAUAAQAAUUgAIAAASBYALGVgcBVryyUacqj6RW3m9l6nbcE/Z63aeLn0fd039JS/T5gcLh8NUqPLThKo+kE5P5I2vDuz+MdaK/w81llGT7xOMbJ39577crnrmA4TRoRyUqcYLwWr83u35mTOiiDS0OF6e27voti3X4RDdX9TdMtVQOUr4Zwdt0aTi/DabTrLNCa1coRzX/ijdfNfodjjoI18aaaZnKbJdOFljqUopTxVNJXvGSrSV7393ur723ZVQxbjd4eDnKTu62IjaKf/TpXfzk/Q6Krw2N72RbrYRK1jH+cvluZNEsNKU+8qylWn8VR3a8IraK8EZuGwjerRn08OiMbjqVCGepKMF48/BLmzpOTUZZGGoJGRjKnd0py00jJ67aJsxMDi81pJXTV1yZre3WKmsG1F5c0owdt3F3uvoRXnuP4rXxDvVm2uUVpBenP1KcNoyinSMyjSNIzaUtC6WqaLpRIAIAAKJIAIKQAVAkAAjt+zPY+nUhGtiZSeZZlTjorPbM9/HSxxB6tGs4xjldtFb5EtHR8OwVGlFQpQjTXSKS/+szkjScJ4iqnsvSSNsqoF25RORalVMepXCqqtSxiVq5ar4j9TVYnG2urkGTiq6szAwGIUnNLlb8zRdo+PxoUZTbu7WjG+spPb9X5Gi/Z9x+rUq1adW0k13ia0y7Ry25rb5eIHe1Imvx9WMNZNIzKteNt0ee9re08oYh0lSUsiWrla7kk9reQHQ1cc37ui6s4DtTxJVqmWLzKF1fk5Pe3gjFxvGcRWWWU8sfhhon582YUYGtD1LgGNhOlGUWmrL002fRmF23xkJU4UU05Zs7S5JJrX5nCYZNe7KUf4W1+Bm0YevnuTQrp0zIhEiCLsUUVRRUQiSCQAUAAQARcAAAUAAESejcBr99hact2lkfnHT8r+p5udF2M4uqVXuZu0aj0b2U9l89vkSjrFmpzU1y/DmdDSxd0n6mtq0UyzTq5dOhBtquJ/vzMDEYz+/IwsVjLLfr9Dm+NcfpUV9pNJ62S1k/JIit9isdv6/hc4LtJ2tcakqVFXaeVyl7qdley5+vQ1PE+1VareNK9KPX94/Xl6fM0OUsnyqcViKlWWepJzfWX5dDpP2d6Ymf+n/7I51QMvh1epRqKpSeWS011TXNNc0aR63Kx5X2v1x1Xziv/AAibyfa3EONlTpp9bya/l/qcxiHKc3ObzOTu2+bEgxYxLsIFcYFyMQKqUDLpos04mRBAXYouotwLiIJJCJKAAIAAAAWAEAElRAJAFEmY9VGSy3KIHV9n+20YU+7xjacdFUs5Zl/mSW5mYjtXgmnNV46ctVJ+Ci1dnAVadzAqUSaVvONdsatRuOHTpR+KVnN+m0frscxLNJ5pNyb3cm235tmR3RVGkUWYUy7GBdjTK1AC0oFyECtRKkgIaLUoF+xDiBZUS5FEqJXGIEwiXoopii5Eiq4orRTEqQRJJCJAAAAASBAFgABIKiAABDKWishgWpRMapTM1otyQVh90FAycpGUCxlFi9YpcQLeUmxVYWApsLFdhYClIqiiUipIipRWilIrQFSJIRIRJJBIAkgkoAEkAEACCQCoAAKgEgCllLRWylgUNFLRWyGgLbRTYuNFNgKLCxXYiwEWCRNiSAkSkSSgoiRYlBEkohEoCUSiCQJAAAEgAAAIABRBIAEBABAhkAKhkAAUshkAAQABLJIBBUCQBKBIAkkgAVMIAoklAEEEgASACj//2Q==;" vertex="1" parent="1">
          <mxGeometry x="330" y="480" width="125" height="125" as="geometry" />
        </mxCell>
        <mxCell id="I93GAZYGxNIZabXF53_L-12" value="" style="endArrow=classic;html=1;rounded=0;" edge="1" parent="1">
          <mxGeometry width="50" height="50" relative="1" as="geometry">
            <mxPoint x="540" y="370" as="sourcePoint" />
            <mxPoint x="420" y="370" as="targetPoint" />
            <Array as="points">
              <mxPoint x="490" y="370" />
            </Array>
          </mxGeometry>
        </mxCell>
        <mxCell id="I93GAZYGxNIZabXF53_L-13" value="" style="endArrow=classic;html=1;rounded=0;" edge="1" parent="1">
          <mxGeometry width="50" height="50" relative="1" as="geometry">
            <mxPoint x="380" y="390" as="sourcePoint" />
            <mxPoint x="380" y="470" as="targetPoint" />
          </mxGeometry>
        </mxCell>
        <mxCell id="I93GAZYGxNIZabXF53_L-14" value="" style="endArrow=classic;html=1;rounded=0;exitX=0.242;exitY=0.088;exitDx=0;exitDy=0;exitPerimeter=0;" edge="1" parent="1" source="I93GAZYGxNIZabXF53_L-8">
          <mxGeometry width="50" height="50" relative="1" as="geometry">
            <mxPoint x="710" y="260" as="sourcePoint" />
            <mxPoint x="710" y="190" as="targetPoint" />
          </mxGeometry>
        </mxCell>
        <mxCell id="I93GAZYGxNIZabXF53_L-15" value="" style="endArrow=classic;html=1;rounded=0;entryX=1;entryY=0.5;entryDx=0;entryDy=0;" edge="1" parent="1" target="I93GAZYGxNIZabXF53_L-2">
          <mxGeometry width="50" height="50" relative="1" as="geometry">
            <mxPoint x="730" y="192" as="sourcePoint" />
            <mxPoint x="660" y="190" as="targetPoint" />
            <Array as="points">
              <mxPoint x="610" y="193" />
            </Array>
          </mxGeometry>
        </mxCell>
        <mxCell id="I93GAZYGxNIZabXF53_L-16" value="" style="endArrow=classic;html=1;rounded=0;entryX=0.5;entryY=0;entryDx=0;entryDy=0;" edge="1" parent="1" source="I93GAZYGxNIZabXF53_L-8" target="I93GAZYGxNIZabXF53_L-1">
          <mxGeometry width="50" height="50" relative="1" as="geometry">
            <mxPoint x="710" y="420" as="sourcePoint" />
            <mxPoint x="760" y="370" as="targetPoint" />
          </mxGeometry>
        </mxCell>
        <mxCell id="I93GAZYGxNIZabXF53_L-17" value="" style="endArrow=classic;html=1;rounded=0;entryX=0;entryY=0.75;entryDx=0;entryDy=0;exitX=0;exitY=0.5;exitDx=0;exitDy=0;" edge="1" parent="1" source="I93GAZYGxNIZabXF53_L-1" target="I93GAZYGxNIZabXF53_L-5">
          <mxGeometry width="50" height="50" relative="1" as="geometry">
            <mxPoint x="570" y="490" as="sourcePoint" />
            <mxPoint x="620" y="440" as="targetPoint" />
          </mxGeometry>
        </mxCell>
        <mxCell id="I93GAZYGxNIZabXF53_L-18" value="" style="endArrow=none;html=1;rounded=0;entryX=0.5;entryY=1;entryDx=0;entryDy=0;" edge="1" parent="1" target="I93GAZYGxNIZabXF53_L-2">
          <mxGeometry width="50" height="50" relative="1" as="geometry">
            <mxPoint x="540" y="370" as="sourcePoint" />
            <mxPoint x="560" y="265" as="targetPoint" />
            <Array as="points" />
          </mxGeometry>
        </mxCell>
      </root>
    </mxGraphModel>
  </diagram>
</mxfile>
